<?xml version="1.0" encoding="UTF-8"?>
<svg data-bbox="3.86 5.67 789.89 346.22" viewBox="0 0 800 359" xmlns="http://www.w3.org/2000/svg" data-type="color">
    <g>
        <path fill="#00205c" d="M100.05 129.65V6.12h1.22v123.11l-1.22.42z" data-color="1"/>
        <path fill="#00205c" d="M792.58 6.89H315.61v20.45h9.49v1.22h-10.71V5.67h478.98" data-color="1"/>
        <path d="M272.63 49.69V5.72L4.47 5.88h-.61v124.43h57.17c.01-.41.03-.81.04-1.22H5.08v-122l266.33-.15V50.9h26.98v78.19H87.41c-.02.41-.05.81-.07 1.22h212.27V49.69h-26.98z" fill="#00205c" data-color="1"/>
        <path fill="#00205c" d="M61.07 213.82H3.91v-78.34h57.16v56.59h-1.22V136.7H5.13v75.9h54.72v-10.34h1.22v11.56z" data-color="1"/>
        <path fill="#00205c" d="M61.07 351.69H3.91V228.93h57.16v8.57h-1.22v-7.35H5.13v120.32h54.72v-52.73h1.22v53.95z" data-color="1"/>
        <path fill="#00205c" d="M60.97 247.64v28.4h-1.22v-28.4h1.22z" data-color="1"/>
        <path fill="#00205c" d="M71.13 297.54H59.75v-12.78h1.22v11.56h10.16v1.22z" data-color="1"/>
        <path fill="#00205c" d="M371.09 351.89H60.46v-1.21h309.41v-53.75h-7.92v-1.22h9.14v56.18z" data-color="1"/>
        <path fill="#00205c" d="M351.99 295.71v1.22h-41.66v-1.22h41.66z" data-color="1"/>
        <path fill="#00205c" d="M298.39 295.71v1.22h-87.24v-1.22h87.24z" data-color="1"/>
        <path fill="#00205c" d="M246.51 296.32v53.95h-1.22v-53.95h1.22z" data-color="1"/>
        <path fill="#00205c" d="M101.15 351.29h-1.22v-54.41H82.41v-1.22h18.74v55.63z" data-color="1"/>
        <path fill="#00205c" d="M353.26 6.28v56.03h-1.22V6.28h1.22z" data-color="1"/>
        <path fill="#00205c" d="M380.54 61.86h-18.75v-1.22h17.53V6.28h1.22v55.58z" data-color="1"/>
        <path fill="#00205c" d="M408.28 61.86h-18.75v-1.22h17.53V6.28h1.22v55.58z" data-color="1"/>
        <path fill="#00205c" d="M466.96 61.86h-30.48v-1.22h29.26V6.28h1.22v55.58z" data-color="1"/>
        <path fill="#00205c" d="M425.35 62.01h-6.4v-1.22h5.18V6.28h1.22v55.73z" data-color="1"/>
        <path fill="#00205c" d="M535.24 60.64v1.22h-68.89v-1.22h68.89z" data-color="1"/>
        <path fill="#00205c" d="M574.73 61.65h-26.22v-1.21h24.99l-.2-54.16h1.22l.21 55.37z" data-color="1"/>
        <path fill="#00205c" d="M639.35 60.44v1.22h-56.5v-1.22h56.5z" data-color="1"/>
        <path fill="#00205c" d="M605.21 6.28v54.76h-1.22V6.28h1.22z" data-color="1"/>
        <path fill="#00205c" d="M687.92 61.25h-34.75v-1.22h33.53V6.28h1.22v54.97z" data-color="1"/>
        <path fill="#00205c" d="M709.06 61.45h-14.43V39.44h23.27V6.79h1.22v33.87h-23.27v19.57h13.21v1.22z" data-color="1"/>
        <path fill="#00205c" d="M739.14 91.06h-1.22v-29.2H718.2v-1.22h19.72V6.28h1.22v84.78z" data-color="1"/>
        <path fill="#00205c" d="M739.75 103.03v47.87h-1.22v-47.87h1.22z" data-color="1"/>
        <path fill="#00205c" d="M792.99 270.97h-54.26V161.85h1.22v107.9h53.04v1.22z" data-color="1"/>
        <path fill="#00205c" d="M793.6 5.7v344.88h-1.22V5.7h1.22z" data-color="1"/>
        <path fill="#00205c" d="M519.24 351.49H393.65V295.2h9.75v1.22h-8.53v53.85h123.15v-54.46H414.38v-1.21h104.86v56.89z" data-color="1"/>
        <path fill="#00205c" d="M623.5 351.49H518.02V294.6h16.77v1.21h-15.55v54.46h103.04v-53.54h-74.99v-1.22h76.21v55.98z" data-color="1"/>
        <path fill="#00205c" d="M637.22 351.49h-14.33v-1.22H636v-53.65h-13.11v-1.21h14.33v56.08z" data-color="1"/>
        <path d="M681.22 351.49h-22.76v-56.18l22.76-.11v56.29zm-21.55-1.22H680v-53.85l-20.32.1v53.75z" fill="#00205c" data-color="1"/>
        <path d="M702.76 351.49H680v-56.18l22.76-.11v56.29zm-21.54-1.22h20.32v-53.85l-20.32.1v53.75z" fill="#00205c" data-color="1"/>
        <path d="M740.56 351.49h-39.07v-56.18l39.07-.11v56.29zm-37.85-1.22h36.63v-53.85l-36.63.1v53.75z" fill="#00205c" data-color="1"/>
        <path d="M793.75 351.49h-54.41V269.9l54.41-.15v81.74zm-53.19-1.22h51.98v-79.3l-51.98.14v79.16z" fill="#00205c" data-color="1"/>
        <path fill="#00205c" d="M335.53 134.12h-9v-4.02h-3.95l-10.02-10v-17.06l6.28-6.27-6.28-6.28v-8.66l6.67-6.65h9.53l6.05 6.03 5.38-5.36h17.09l10.03 10v16.87l-8.84 8.82-1.09-1.08 8.39-8.37V86.48l-9.12-9.11h-15.83l-6.01 6.01-6.68-6.67h-8.27l-5.77 5.76v7.39l6.92 6.91-6.92 6.9v15.8l9.12 9.1h4.85v4.02H334v-4.68h5.33l6.57-6.56 1.08 1.08-7.02 7h-4.43v4.69z" data-color="1"/>
        <path fill="#00205c" d="M352.65 43.92v1.22H331.8v-1.22h20.85z" data-color="1"/>
        <path fill="#00205c" d="M352.65 30.24v1.53h-20.74v-1.53h20.74z" data-color="1"/>
        <path d="M598.96 270.41H346.55V143.33l.04-.04 34.04-33.97-7.93-8.21.1-.11 14.07-14.04H538.3v42.07l13.41-13.39V86.96h47.25v183.45zm-252.1-.31h251.8V87.26h-46.64v28.51l-.04.04L538 129.76v-42.5H387.01l-13.87 13.84 7.93 8.21-.1.11-34.1 34.03V270.1z" fill="#00205c" data-color="1"/>
        <path fill="#00205c" d="m385.83 201.51-.22-.22 16.68-16.64.1.11 11.07 11.05 10.88-10.85.11.11 10.76 10.74 11.38-11.36.11.11 10.97 10.94 11.38-11.35.1.1 11.18 11.15 10.97-10.95.11.11 11.17 11.15 10.26-10.25.11.11 10.56 10.54 22.35-22.3.22.21-22.57 22.52-.11-.1-10.56-10.55-10.26 10.25-.11-.11-11.17-11.15-10.97 10.95-.11-.1-11.17-11.15-11.38 11.35-.11-.1-10.97-10.95-11.38 11.36-.11-.11-10.76-10.74-10.88 10.85-.1-.11-11.07-11.05-16.46 16.43z" data-color="1"/>
        <path fill="#00205c" d="m401.05 208.63-.22-.21 34.75-34.69.22.22-34.75 34.68z" data-color="1"/>
        <path fill="#00205c" d="m423.68 207.64-.21-.21 34.75-34.69.22.22-34.76 34.68z" data-color="1"/>
        <path fill="#00205c" d="m446.72 206.8-.21-.21 34.75-34.68.22.21-34.76 34.68z" data-color="1"/>
        <path fill="#00205c" d="m469.33 206.8-.21-.21 34.75-34.68.22.21-34.76 34.68z" data-color="1"/>
        <path fill="#00205c" d="m491.87 206.8-.22-.21 34.75-34.68.22.21-34.75 34.68z" data-color="1"/>
        <path d="M193.71 270.65H86.22v-.15l.1-39.14.04-.04 7.82-7.8h82.69l.05.04 24.91 24.86v14.13c-.01.09-.71 8.1-8.12 8.1zm-107.19-.3h107.19c2.99 0 5.21-1.31 6.6-3.89 1.05-1.94 1.21-3.9 1.21-3.92v-14l-24.78-24.73H94.31l-7.68 7.67-.11 38.87z" fill="#00205c" data-color="1"/>
        <path d="M330.52 270.65H223.03c-7.41 0-8.11-8.01-8.12-8.09v-14.15l.04-.04 24.91-24.86h90.37l.18 7.91.11 39.23zm-115.31-22.11v14.01c0 .01.16 1.97 1.21 3.91 1.39 2.58 3.61 3.89 6.6 3.89h107.19l-.1-38.93-.17-7.61h-89.95l-24.78 24.73z" fill="#00205c" data-color="1"/>
        <path d="M176.36 209.11H93.93l-.05-.04-6.45-6.43v-66.39h.15l112.64-.15v49.2l-.04.04-23.82 23.77zm-82.31-.31h82.18l23.69-23.64v-48.77l-112.18.15v65.96l6.31 6.3z" fill="#00205c" data-color="1"/>
        <path d="M86.62 118.49H14.88V17.5h.1l71.64-.21v68.18l-.03.06.03 32.96zm-71.54-.43h71.35V17.71l-71.35.21v100.14z" fill="#00205c" data-color="1"/>
        <path d="M328.57 210.32H239.8l-.05-.04-25.35-25.3v-.06l.31-48.68h86.48l.05.04 27.33 27.27v46.77zm-88.65-.3h88.34v-46.33l-27.19-27.14h-86.06l-.3 48.31 25.21 25.16z" fill="#00205c" data-color="1"/>
        <path fill="#00205c" d="M125.29 351.29h-1.22v-55.58h34.14v1.22h-32.92v54.36z" data-color="1"/>
        <path fill="#00205c" d="M169.59 351.29h-1.22v-55.58h34.14v1.22h-32.92v54.36z" data-color="1"/>
        <path d="M216.08 208.95h-4.5l-.06-.38c-.03-.16-.67-3.95-3.89-3.95s-3.72 3.63-3.74 3.78l-.05.4h-5.66v-.91h4.87c.34-1.64 1.62-4.18 4.58-4.18 2.97 0 4.33 2.65 4.72 4.34h3.74v.9z" fill="#00205c" data-color="1"/>
        <path d="M206.63 229.8c-2.97 0-4.33-2.65-4.72-4.34h-3.74v-.91h4.5l.06.38c.03.16.67 3.95 3.89 3.95s3.72-3.63 3.74-3.78l.05-.4h5.66v.91h-4.87c-.33 1.64-1.61 4.19-4.57 4.19z" fill="#00205c" data-color="1"/>
        <path d="M199.01 224.66h-.91v-3.28c-.65-.04-1.81-.25-2.71-1.1-.83-.77-1.25-1.89-1.25-3.31 0-1.21.4-2.21 1.19-2.95 1.67-1.57 4.47-1.43 4.59-1.42l-.05.91c-.02 0-2.54-.12-3.91 1.18-.6.56-.9 1.33-.9 2.28 0 1.16.32 2.05.96 2.64 1.02.95 2.51.86 2.52.86l.49-.03v4.22z" fill="#00205c" data-color="1"/>
        <path d="M215.14 220.44c-.15 0-.25 0-.27-.01l.05-.91c.03 0 2.54.12 3.91-1.18.6-.56.9-1.33.9-2.28 0-1.16-.32-2.05-.96-2.64-1.02-.95-2.5-.86-2.52-.86l-.49.03v-4.21h.91v3.28c.65.04 1.81.25 2.71 1.1.83.77 1.25 1.89 1.25 3.31 0 1.21-.4 2.21-1.19 2.95-1.36 1.3-3.54 1.42-4.3 1.42z" fill="#00205c" data-color="1"/>
        <path d="M211.39 213.73h-2.02l-.04-.22c-.01-.07-.29-1.67-1.63-1.67-1.35 0-1.56 1.53-1.56 1.59l-.03.23h-2.53v-.53h2.07c.17-.74.75-1.83 2.05-1.83 1.31 0 1.92 1.13 2.11 1.89h1.58v.54z" fill="#00205c" data-color="1"/>
        <path d="M207.26 222.83c-1.31 0-1.92-1.13-2.11-1.89h-1.58v-.53h2.02l.04.22c.01.07.29 1.67 1.63 1.67s1.56-1.53 1.57-1.59l.03-.23h2.53v.52h-2.07c-.18.74-.76 1.83-2.06 1.83z" fill="#00205c" data-color="1"/>
        <path d="M204 220.52h-.53v-1.37c-.3-.03-.78-.13-1.17-.49-.38-.35-.56-.85-.56-1.49 0-.55.18-1 .54-1.34.75-.7 2-.64 2.05-.64l-.03.53c-.02 0-1.08-.05-1.66.5-.25.24-.37.55-.37.95 0 .48.13.86.39 1.1.42.39 1.05.36 1.05.36l.28-.02v1.91z" fill="#00205c" data-color="1"/>
        <path d="M210.97 218.75h-.12l.03-.53c.01 0 1.08.05 1.66-.5.25-.24.37-.55.37-.95 0-.48-.13-.86-.39-1.1-.42-.39-1.04-.36-1.05-.36l-.28.02v-1.91h.53v1.37c.3.03.78.13 1.17.49.38.35.56.85.56 1.49 0 .55-.18 1-.54 1.34-.62.58-1.6.64-1.94.64z" fill="#00205c" data-color="1"/>
        <path d="M721.81 270.31H612.17v-.15l-.2-18.55.08-.04 56.37-31.89.08.04 8.05 4.62 27.89-16.13-.61-8.12.09-.05 17.9-9.45v79.72zM612.47 270H721.5v-78.9l-17.37 9.17.61 8.11-.08.05-28.12 16.27-.08-.04-8.05-4.62-56.14 31.76.2 18.2z" fill="#00205c" data-color="1"/>
        <path d="M611.76 239.99V87.46h107.81v93.35l-22.62 8.91-.06-.04-6.71-3.84-25.22 13.68.46 10.65-.08.05-53.58 29.77zm.31-152.22v151.71l53.04-29.47-.46-10.65 25.54-13.85 6.79 3.88 22.29-8.78V87.77h-107.2z" fill="#00205c" data-color="1"/>
        <path fill="#00205c" d="M394.57 350.73v.3h-23.78v-.3h23.78z" data-color="1"/>
        <path fill="#00205c" d="M394.57 345.45v.3h-23.78v-.3h23.78z" data-color="1"/>
        <path fill="#00205c" d="M394.57 340.18v.3h-23.78v-.3h23.78z" data-color="1"/>
        <path fill="#00205c" d="M394.57 334.91v.3h-23.78v-.3h23.78z" data-color="1"/>
        <path fill="#00205c" d="M394.57 329.63v.3h-23.78v-.3h23.78z" data-color="1"/>
        <path fill="#00205c" d="M394.57 324.36v.3h-23.78v-.3h23.78z" data-color="1"/>
        <path fill="#00205c" d="M394.57 319.09v.3h-23.78v-.3h23.78z" data-color="1"/>
        <path fill="#00205c" d="M394.57 313.81v.3h-23.78v-.3h23.78z" data-color="1"/>
        <path fill="#00205c" d="M394.57 308.54v.3h-23.78v-.3h23.78z" data-color="1"/>
        <path fill="#00205c" d="M394.57 303.27v.3h-23.78v-.3h23.78z" data-color="1"/>
        <path fill="#00205c" d="M394.57 297.99v.3h-23.78v-.3h23.78z" data-color="1"/>
        <path fill="#00205c" d="M647.23 328.62v.3h-10.01v-.3h10.01z" data-color="1"/>
        <path fill="#00205c" d="M647.23 330.85v.3h-10.01v-.3h10.01z" data-color="1"/>
        <path fill="#00205c" d="M647.23 333.08v.3h-10.01v-.3h10.01z" data-color="1"/>
        <path fill="#00205c" d="M647.23 335.31v.3h-10.01v-.3h10.01z" data-color="1"/>
        <path fill="#00205c" d="M647.23 337.54v.3h-10.01v-.3h10.01z" data-color="1"/>
        <path fill="#00205c" d="M647.23 339.77v.3h-10.01v-.3h10.01z" data-color="1"/>
        <path fill="#00205c" d="M658.46 328.62v.3h-10.01v-.3h10.01z" data-color="1"/>
        <path fill="#00205c" d="M658.46 330.85v.3h-10.01v-.3h10.01z" data-color="1"/>
        <path fill="#00205c" d="M658.46 333.08v.3h-10.01v-.3h10.01z" data-color="1"/>
        <path fill="#00205c" d="M658.46 335.31v.3h-10.01v-.3h10.01z" data-color="1"/>
        <path fill="#00205c" d="M658.46 337.54v.3h-10.01v-.3h10.01z" data-color="1"/>
        <path fill="#00205c" d="M658.46 339.77v.3h-10.01v-.3h10.01z" data-color="1"/>
        <path fill="#00205c" d="M659.09 295.31v1.22h-11.2v-1.22h11.2z" data-color="1"/>
        <path fill="#00205c" d="M718.46 153v12.21h-.37V153h.37z" data-color="1"/>
        <path fill="#00205c" d="M715.73 153v12.21h-.37V153h.37z" data-color="1"/>
        <path fill="#00205c" d="M713 153v12.21h-.37V153h.37z" data-color="1"/>
        <path fill="#00205c" d="M710.26 153v12.21h-.37V153h.37z" data-color="1"/>
        <path fill="#00205c" d="M707.53 153v12.21h-.37V153h.37z" data-color="1"/>
        <path fill="#00205c" d="M704.8 153v12.21h-.37V153h.37z" data-color="1"/>
        <path fill="#00205c" d="M718.46 166.7v12.21h-.37V166.7h.37z" data-color="1"/>
        <path fill="#00205c" d="M715.73 166.7v12.21h-.37V166.7h.37z" data-color="1"/>
        <path fill="#00205c" d="M713 166.7v12.21h-.37V166.7h.37z" data-color="1"/>
        <path fill="#00205c" d="M710.26 166.7v12.21h-.37V166.7h.37z" data-color="1"/>
        <path fill="#00205c" d="M707.53 166.7v12.21h-.37V166.7h.37z" data-color="1"/>
        <path fill="#00205c" d="M704.8 166.7v12.21h-.37V166.7h.37z" data-color="1"/>
        <path fill="#00205c" d="M719.17 179.53h-29.1v-26.89h29.35v.37h-28.97v26.15h28.72v.37z" data-color="1"/>
        <path fill="#00205c" d="M521.78 88.15v.37h-12.24v-.37h12.24z" data-color="1"/>
        <path fill="#00205c" d="M521.78 90.88v.37h-12.24v-.37h12.24z" data-color="1"/>
        <path fill="#00205c" d="M521.78 93.6v.37h-12.24v-.37h12.24z" data-color="1"/>
        <path fill="#00205c" d="M521.78 96.33v.37h-12.24v-.37h12.24z" data-color="1"/>
        <path fill="#00205c" d="M521.78 99.06v.37h-12.24v-.37h12.24z" data-color="1"/>
        <path fill="#00205c" d="M521.78 101.79v.37h-12.24v-.37h12.24z" data-color="1"/>
        <path fill="#00205c" d="M535.51 88.15v.37h-12.24v-.37h12.24z" data-color="1"/>
        <path fill="#00205c" d="M535.51 90.88v.37h-12.24v-.37h12.24z" data-color="1"/>
        <path fill="#00205c" d="M535.51 93.6v.37h-12.24v-.37h12.24z" data-color="1"/>
        <path fill="#00205c" d="M535.51 96.33v.37h-12.24v-.37h12.24z" data-color="1"/>
        <path fill="#00205c" d="M535.51 99.06v.37h-12.24v-.37h12.24z" data-color="1"/>
        <path fill="#00205c" d="M535.51 101.79v.37h-12.24v-.37h12.24z" data-color="1"/>
        <path fill="#00205c" d="M536.12 116.48h-26.94V87.19h.37v28.92h26.2V87.45h.37v29.03z" data-color="1"/>
        <path fill="#00205c" d="M109.58 302.82v.28h-8.38v-.28h8.38z" data-color="1"/>
        <path fill="#00205c" d="M109.58 297.09v.28h-8.38v-.28h8.38z" data-color="1"/>
        <path fill="#00205c" d="M109.58 305.05v.28h-8.38v-.28h8.38z" data-color="1"/>
        <path fill="#00205c" d="M109.58 307.29v.28h-8.38v-.28h8.38z" data-color="1"/>
        <path fill="#00205c" d="M109.58 309.52v.28h-8.38v-.28h8.38z" data-color="1"/>
        <path fill="#00205c" d="M109.58 311.75v.28h-8.38v-.28h8.38z" data-color="1"/>
        <path fill="#00205c" d="M109.58 313.98v.28h-8.38v-.28h8.38z" data-color="1"/>
        <path fill="#00205c" d="M109.58 315.75v.28h-8.38v-.28h8.38z" data-color="1"/>
        <path fill="#00205c" d="M109.58 317.53v.28h-8.38v-.28h8.38z" data-color="1"/>
        <path fill="#00205c" d="M117.15 317.53v.28h-8.38v-.28h8.38z" data-color="1"/>
        <path fill="#00205c" d="M124.33 306.17v.28h-8.54v-.28h8.54z" data-color="1"/>
        <path fill="#00205c" d="M124.33 303.94v.28h-8.54v-.28h8.54z" data-color="1"/>
        <path fill="#00205c" d="M124.33 308.4v.28h-8.54v-.28h8.54z" data-color="1"/>
        <path fill="#00205c" d="M124.33 310.63v.28h-8.54v-.28h8.54z" data-color="1"/>
        <path fill="#00205c" d="M124.33 312.86v.28h-8.54v-.28h8.54z" data-color="1"/>
        <path fill="#00205c" d="M124.33 315.09v.28h-8.54v-.28h8.54z" data-color="1"/>
        <path fill="#00205c" d="M124.33 317.32v.28h-8.54v-.28h8.54z" data-color="1"/>
        <path fill="#00205c" d="M124.68 328.12v.28H101.1v-.28h23.58z" data-color="1"/>
    </g>
</svg>
